<?xml version="1.0" encoding="UTF-8"?><svg id="Capa_1" xmlns="http://www.w3.org/2000/svg" viewBox="0 0 1000 1000"><path d="M486.41,60.34c7.87,68.9,28.5,132.77,74.12,189.56,47.26-49.07,100.8-85.82,167.29-108.47-6.53,31.55-20.26,89.43-21.09,89.27,4.99-26.88,9.98-53.75,15.49-83.45-65.65,24.54-115.36,65.81-161.93,115.8-43.41-48.96-69.07-105.42-82.63-171.96-39.13,56.55-59.92,114.72-57.68,182.55-61.06-17.17-104.81-54.66-142.17-101.35-1.49,.46,3.63,45.91,8.84,67.89,5.21,21.97,11.9,43.58,18.52,67.42-19.62-31.33-43.88-133.13-39.26-166.15,36.54,49.88,78.95,89.98,138,112.32,1.53-12.25,2.37-23.36,4.36-34.26,10.01-54.61,33.64-103.07,67.04-147.07,2.93-3.86,10.1-12.11,11.09-12.11Z"/><path d="M761.57,797.95c-2.24,3.45-4.22,7.12-6.77,10.33-171.92,216.36-464.29,139.78-560.59-43.94-68.1-129.92-21.33-278.19,114.89-341.81,154.23-72.03,307.09-60.16,451.22,31.47,47.83,30.41,76.7,75.46,76.43,134.86-.31,68.33-44.32,127.3-110.02,148.13-65.67,20.82-129.87-1.4-171.31-58.69-2.77-3.83-9.18-6.92-14.01-7.08-28.64-.96-54.74-7.37-75.42-29.03-15.93-16.69-34.93-27.07-58.84-27.57-7.8-.16-12.5,1.57-13.84,9.43-5.7,33.53-13.52,66.88-16.4,100.66-.08,7.2-.18,13.89-.3,20.12-1.56,84.78-5.84,82.96-8.61,83.58-4.43-50.79-14.41-152.09-13.18-151.02s6.98,10.12,10.38,33c0,0,1.2-12.76,2.41-19.02,5.14-26.62,10.48-53.19,15.81-79.77,1.61-8.05,6.37-10.56,14.75-10.68,29.65-.44,55.48,7.9,76.76,29.23,18.07,18.11,39.63,26.77,65.52,23.61-2.35-16.18-5.37-31.16-6.5-46.29-1.56-20.9,3.8-40.4,16.98-57.01,21.03-26.5,56.92-24.09,74.73,4.7,19.14,30.93,8.94,72.87-23.48,95.27-7.26,5.01-15.28,8.92-24.37,14.15,19.04,28.04,45.85,43.11,77.84,48.97,87.83,16.1,165.26-61.8,149.04-149.52-5.26-28.45-20.99-51.01-41.95-70.03-44.96-40.8-99.98-60.95-157.56-75.62-93.89-23.92-186.35-21.98-276.26,16.82-75.32,32.5-128.44,86.1-145.65,167.96-17.98,85.54,11.98,158.07,70.9,219.33,88.09,91.59,234.29,126.49,354.26,72.17,1.66-.75-20.18,15.22-33.55,22.4,77.04-16.59,136.59-60.06,186.66-119.08Zm-192.92-147.12c11.23-7.32,21.45-12.36,29.64-19.66,19.15-17.08,25.02-43.54,12.96-62.65-4.7-7.45-14.49-15.78-22.23-16.05-7.64-.26-18.22,7.44-22.96,14.64-17.4,26.44-10.07,53.44,2.6,83.71Z"/><path d="M712.97,157.08c-4.14,46.66-12.88,92.1-29.96,135.36-7.54,19.09-18.58,36.82-28.44,54.95-4.46,8.2-10.91,8.95-19.88,5.53-73.7-28.11-149.68-30.31-226.67-18.38-20.93,3.24-41.7,7.44-63.3,10.03,16.58-5.5,32.95-11.81,49.79-16.37,79.62-21.56,158.06-14.7,234.99,12.47,13.14,4.64,18.87,.93,24.92-9.11,26.15-43.37,40.65-91.03,51.87-139.9,2.63-11.43,4.47-23.04,6.67-34.57Z"/></svg>